# xmcd
#
# Track frame offsets:
#	150
#	15185
#	30352
#	45050
#	59557
#	72627
#	84347
#	98482
#	112495
#	124842
#	139795
#	153107
#	167245
#	179410
#	193655
#	203622
#	214887
#	228422
#	243242
#	257972
#	271870
#	287247
#	300382
#	311807
#	323617
#
# Disc length: 4512 seconds
#
# Revision: 0
# Processed by: cddbd v1.5.1PL2 Copyright (c) Steve Scherf et al.
# Submitted via: audiograbber 1.83.01
#
DISCID=5a119e19
DTITLE=Jackie Gleason - Lover's Rhapsody and And awaay we go! and Bonus tracks
DYEAR=2001
DGENRE=
TTITLE0=Desire
TTITLE1=Flirtation
TTITLE2=Temptation
TTITLE3=Enchantment
TTITLE4=When your lover has gone
TTITLE5=Tenderly
TTITLE6=T'm thru with love
TTITLE7=Dark is the night (C'est)
TTITLE8=And away we go!
TTITLE9=The poor soul
TTITLE10=You're a Dan-Dan-Dandy
TTITLE11=Reggie Van Gleason Ill
TTITLE12=Hy's mister Denney
TTITLE13=One of these days...Pow!
TTITLE14=Here's Charlie
TTITLE15=You're a nice man
TTITLE16=White House Serenade
TTITLE17=Melancholy Serenade
TTITLE18=You're getting to be a habbit with me
TTITLE19=Peg O' my heart
TTITLE20=The president's lady
TTITLE21=Terry's theme from 'Limelight'
TTITLE22=Crazy Rhythm
TTITLE23=After you've gone
TTITLE24=A little love, a little kiss
EXTD=
EXTT0=
EXTT1=
EXTT2=
EXTT3=
EXTT4=
EXTT5=
EXTT6=
EXTT7=
EXTT8=
EXTT9=
EXTT10=
EXTT11=
EXTT12=
EXTT13=
EXTT14=
EXTT15=
EXTT16=
EXTT17=
EXTT18=
EXTT19=
EXTT20=
EXTT21=
EXTT22=
EXTT23=
EXTT24=
PLAYORDER=
